<svg width="4563" height="809" viewBox="0 0 4563 809" fill="none" xmlns="http://www.w3.org/2000/svg">
<path d="M2781.06 809H2659.71C2656.68 809 2654.66 806.978 2654.66 803.944V5.05625C2654.66 2.02248 2656.68 0 2659.71 0L2781.06 0C2784.1 0 2786.12 2.02248 2786.12 5.05625V338.769H2806.35L2871.07 5.05625C2872.08 2.02248 2874.1 0 2877.13 0L3002.53 0C3005.56 0 3007.58 2.02248 3006.57 5.05625L2923.65 404.5L3006.57 803.944C3007.58 807.989 3005.56 809 3002.53 809H2877.13C2874.1 809 2872.08 806.978 2871.07 803.944L2806.35 470.231H2786.12V803.944C2786.12 806.978 2784.1 809 2781.06 809Z" fill="black"/>
<path d="M2620.06 802.933C2622.08 805.966 2620.06 809 2617.03 809H2493.66C2491.63 809 2488.6 806.978 2487.59 804.955C2474.44 784.73 2474.44 749.336 2474.44 730.123L2476.46 444.95H2415.79V803.944C2415.79 806.978 2413.77 809 2410.73 809H2289.38C2286.35 809 2284.33 806.978 2284.33 803.944V5.05625C2284.33 2.02248 2286.35 0 2289.38 0L2506.8 0C2587.7 0 2607.93 60.675 2607.93 161.8V301.352C2607.93 355.96 2576.58 372.14 2560.4 374.163V394.388C2575.57 396.41 2607.93 412.59 2607.93 467.198V730.123C2607.93 747.314 2607.93 782.708 2620.06 802.933ZM2415.79 323.6H2476.46V121.35H2415.79V323.6Z" fill="black"/>
<path d="M2209.38 5.05625L2253.87 803.944C2253.87 807.989 2251.85 809 2248.82 809H2127.47C2124.43 809 2122.41 807.989 2122.41 803.944L2112.3 601.694H2041.51L2031.4 803.944C2031.4 807.989 2029.37 809 2026.34 809H1904.99C1901.96 809 1899.93 807.989 1899.93 803.944L1944.43 5.05625C1944.43 1.01124 1946.45 0 1949.49 0L2204.32 0C2207.35 0 2209.38 1.01124 2209.38 5.05625ZM2066.79 121.35L2048.59 480.344H2105.22L2087.02 121.35H2066.79Z" fill="black"/>
<path d="M1777.99 0C1858.89 0 1879.12 60.675 1879.12 161.8V647.2C1879.12 748.325 1858.89 809 1777.99 809H1560.57C1557.54 809 1555.52 806.978 1555.52 803.944V5.05625C1555.52 2.02248 1557.54 0 1560.57 0L1777.99 0ZM1747.65 687.65V121.35H1686.98V687.65H1747.65Z" fill="black"/>
<path d="M4336.4 809H4215.05C4212.02 809 4209.99 806.978 4209.99 803.944V5.05625C4209.99 2.02248 4212.02 0 4215.05 0L4336.4 0C4339.43 0 4341.46 2.02248 4341.46 5.05625V338.769H4361.68L4426.4 5.05625C4427.41 2.02248 4429.43 0 4432.47 0L4557.86 0C4560.9 0 4562.92 2.02248 4561.91 5.05625L4478.99 404.5L4561.91 803.944C4562.92 807.989 4560.9 809 4557.86 809H4432.47C4429.43 809 4427.41 806.978 4426.4 803.944L4361.68 470.231H4341.46V803.944C4341.46 806.978 4339.43 809 4336.4 809Z" fill="black"/>
<path d="M4175.4 802.933C4177.42 805.966 4175.4 809 4172.36 809H4048.99C4046.97 809 4043.93 806.978 4042.92 804.955C4029.78 784.73 4029.78 749.336 4029.78 730.123L4031.8 444.95H3971.12V803.944C3971.12 806.978 3969.1 809 3966.07 809H3844.72C3841.68 809 3839.66 806.978 3839.66 803.944V5.05625C3839.66 2.02248 3841.68 0 3844.72 0L4062.14 0C4143.04 0 4163.26 60.675 4163.26 161.8V301.352C4163.26 355.96 4131.91 372.14 4115.73 374.163V394.388C4130.9 396.41 4163.26 412.59 4163.26 467.198V730.123C4163.26 747.314 4163.26 782.708 4175.4 802.933ZM3971.12 323.6H4031.8V121.35H3971.12V323.6Z" fill="black"/>
<path d="M3764.71 5.05625L3809.21 803.944C3809.21 807.989 3807.18 809 3804.15 809H3682.8C3679.77 809 3677.74 807.989 3677.74 803.944L3667.63 601.694H3596.84L3586.73 803.944C3586.73 807.989 3584.71 809 3581.67 809H3460.32C3457.29 809 3455.27 807.989 3455.27 803.944L3499.76 5.05625C3499.76 1.01124 3501.79 0 3504.82 0L3759.65 0C3762.69 0 3764.71 1.01124 3764.71 5.05625ZM3622.12 121.35L3603.92 480.344H3660.55L3642.35 121.35H3622.12Z" fill="black"/>
<path d="M3333.33 0C3414.23 0 3434.45 60.675 3434.45 161.8V647.2C3434.45 748.325 3414.23 809 3333.33 809H3115.91C3112.87 809 3110.85 806.978 3110.85 803.944V5.05625C3110.85 2.02248 3112.87 0 3115.91 0L3333.33 0ZM3302.99 687.65V121.35H3242.31V687.65H3302.99Z" fill="black"/>
<path d="M1225.73 809H1104.38C1101.35 809 1099.32 806.978 1099.32 803.944V5.05625C1099.32 2.02248 1101.35 0 1104.38 0L1225.73 0C1228.76 0 1230.79 2.02248 1230.79 5.05625V338.769H1251.01L1315.73 5.05625C1316.74 2.02248 1318.76 0 1321.8 0L1447.19 0C1450.23 0 1452.25 2.02248 1451.24 5.05625L1368.32 404.5L1451.24 803.944C1452.25 807.989 1450.23 809 1447.19 809H1321.8C1318.76 809 1316.74 806.978 1315.73 803.944L1251.01 470.231H1230.79V803.944C1230.79 806.978 1228.76 809 1225.73 809Z" fill="black"/>
<path d="M1064.73 802.933C1066.75 805.966 1064.73 809 1061.69 809H938.322C936.299 809 933.266 806.978 932.254 804.955C919.108 784.73 919.108 749.336 919.108 730.123L921.131 444.95H860.456V803.944C860.456 806.978 858.433 809 855.399 809H734.049C731.016 809 728.993 806.978 728.993 803.944V5.05625C728.993 2.02248 731.016 0 734.049 0L951.468 0C1032.37 0 1052.59 60.675 1052.59 161.8V301.352C1052.59 355.96 1021.24 372.14 1005.06 374.163V394.388C1020.23 396.41 1052.59 412.59 1052.59 467.198V730.123C1052.59 747.314 1052.59 782.708 1064.73 802.933ZM860.456 323.6H921.131V121.35H860.456V323.6Z" fill="black"/>
<path d="M654.042 5.05625L698.537 803.944C698.537 807.989 696.515 809 693.481 809H572.131C569.097 809 567.075 807.989 567.075 803.944L556.962 601.694H486.175L476.062 803.944C476.062 807.989 474.04 809 471.006 809H349.656C346.622 809 344.6 807.989 344.6 803.944L389.095 5.05625C389.095 1.01124 391.117 0 394.151 0L648.986 0C652.02 0 654.042 1.01124 654.042 5.05625ZM511.456 121.35L493.253 480.344H549.883L531.681 121.35H511.456Z" fill="black"/>
<path d="M222.657 0C303.557 0 323.782 60.675 323.782 161.8V647.2C323.782 748.325 303.557 809 222.657 809H5.23838C2.20463 809 0.182129 806.978 0.182129 803.944L0.182129 5.05625C0.182129 2.02248 2.20463 0 5.23838 0L222.657 0ZM192.32 687.65L192.32 121.35H131.645L131.645 687.65H192.32Z" fill="black"/>
</svg>
