<svg width="1920" height="1080" viewBox="0 0 1920 1080" fill="none" xmlns="http://www.w3.org/2000/svg">
<path d="M-40.3113 11.2679C13.8843 -2.83323 38.009 34.2882 55.6354 102.033L140.242 427.206C157.868 494.95 154.895 539.122 100.7 553.224L-44.951 591.12C-46.9833 591.649 -48.6907 590.647 -49.2195 588.614L-188.468 53.4331C-188.997 51.4007 -187.994 49.6933 -185.962 49.1645L-40.3113 11.2679ZM59.2246 477.218L-39.483 97.8491L-80.1296 108.425L18.578 487.794L59.2246 477.218ZM249.558 -60.5365L418.614 466.889C419.319 469.599 418.141 470.629 416.108 471.158L334.815 492.309C332.783 492.838 331.251 492.513 330.546 489.803L288.519 356.077L241.098 368.416L269.576 505.667C270.281 508.377 269.103 509.407 267.07 509.936L185.777 531.087C183.745 531.616 182.214 531.291 181.509 528.581L72.0679 -14.3554C71.3628 -17.0652 72.5415 -18.0952 74.5738 -18.624L245.29 -63.0424C247.322 -63.5712 248.853 -63.2463 249.558 -60.5365ZM174.309 42.2228L224.689 285.888L262.625 276.018L187.858 38.6975L174.309 42.2228ZM663.752 402.384C665.636 404.063 664.81 406.448 662.777 406.977L580.129 428.481C578.774 428.834 576.39 428.008 575.36 426.829C563.027 415.572 556.858 391.861 553.509 378.99L505.158 187.598L464.511 198.173L527.085 438.666C527.613 440.699 526.611 442.406 524.579 442.935L443.285 464.086C441.253 464.615 439.546 463.613 439.017 461.581L299.769 -73.6007C299.24 -75.633 300.242 -77.3404 302.275 -77.8692L447.925 -115.766C502.121 -129.867 526.245 -92.7455 543.872 -25.0011L568.196 68.4863C577.714 105.068 559.534 121.372 549.047 125.547L552.573 139.096C563.087 137.806 587.585 143.005 597.103 179.587L642.932 355.723C645.928 367.239 652.098 390.95 663.752 402.384ZM443.359 116.88L484.006 106.304L448.753 -29.1846L408.107 -18.6088L443.359 116.88ZM772.666 378.385L691.373 399.537C689.341 400.066 687.633 399.063 687.105 397.031L547.856 -138.15C547.327 -140.183 548.33 -141.89 550.362 -142.419L631.656 -163.57C633.688 -164.099 635.395 -163.097 635.924 -161.065L694.091 62.4921L707.64 58.9669L692.829 -175.871C692.978 -178.079 693.98 -179.787 696.013 -180.316L780.016 -202.172C782.048 -202.701 783.756 -201.699 783.607 -199.49L797.681 82.5542L922.855 335.691C924.238 338.225 923.059 339.255 921.027 339.783L837.024 361.64C834.991 362.169 833.284 361.167 832.078 359.311L730.554 147.035L717.005 150.56L775.172 374.117C775.701 376.149 774.699 377.856 772.666 378.385Z" fill="black"/>
<path d="M946.134 -244.539C1000.33 -258.64 1024.45 -221.519 1042.08 -153.774L1126.69 171.399C1144.31 239.144 1141.34 283.316 1087.15 297.417L941.495 335.313C939.462 335.842 937.755 334.84 937.226 332.807L797.978 -202.374C797.449 -204.406 798.451 -206.114 800.484 -206.642L946.134 -244.539ZM1045.67 221.411L946.963 -157.958L906.316 -147.382L1005.02 231.987L1045.67 221.411ZM1236 -316.343L1405.06 211.082C1405.76 213.792 1404.59 214.822 1402.55 215.351L1321.26 236.502C1319.23 237.031 1317.7 236.706 1316.99 233.997L1274.96 100.27L1227.54 112.609L1256.02 249.86C1256.73 252.57 1255.55 253.6 1253.52 254.129L1172.22 275.28C1170.19 275.809 1168.66 275.484 1167.95 272.775L1058.51 -270.162C1057.81 -272.872 1058.99 -273.902 1061.02 -274.431L1231.74 -318.849C1233.77 -319.378 1235.3 -319.053 1236 -316.343ZM1160.75 -213.584L1211.13 30.0815L1249.07 20.2107L1174.3 -217.109L1160.75 -213.584ZM1650.2 146.577C1652.08 148.257 1651.26 150.641 1649.22 151.17L1566.57 172.674C1565.22 173.027 1562.84 172.201 1561.81 171.022C1549.47 159.765 1543.3 136.054 1539.95 123.183L1491.6 -68.2092L1450.96 -57.6334L1513.53 182.859C1514.06 184.892 1513.06 186.599 1511.02 187.128L1429.73 208.28C1427.7 208.808 1425.99 207.806 1425.46 205.774L1286.21 -329.408C1285.69 -331.44 1286.69 -333.147 1288.72 -333.676L1434.37 -371.573C1488.57 -385.674 1512.69 -348.552 1530.32 -280.808L1554.64 -187.321C1564.16 -150.739 1545.98 -134.435 1535.49 -130.26L1539.02 -116.711C1549.53 -118 1574.03 -112.802 1583.55 -76.2197L1629.38 99.9159C1632.37 111.432 1638.54 135.143 1650.2 146.577ZM1429.81 -138.927L1470.45 -149.503L1435.2 -284.991L1394.55 -274.416L1429.81 -138.927ZM1759.11 122.578L1677.82 143.73C1675.79 144.259 1674.08 143.256 1673.55 141.224L1534.3 -393.957C1533.77 -395.99 1534.78 -397.697 1536.81 -398.226L1618.1 -419.377C1620.13 -419.906 1621.84 -418.904 1622.37 -416.871L1680.54 -193.315L1694.09 -196.84L1679.27 -431.678C1679.42 -433.886 1680.43 -435.594 1682.46 -436.122L1766.46 -457.979C1768.49 -458.508 1770.2 -457.506 1770.05 -455.297L1784.13 -173.253L1909.3 79.8843C1910.68 82.4178 1909.5 83.4478 1907.47 83.9766L1823.47 105.833C1821.44 106.362 1819.73 105.36 1818.52 103.504L1717 -108.772L1703.45 -105.247L1761.62 118.31C1762.15 120.342 1761.14 122.05 1759.11 122.578Z" fill="black"/>
<path d="M-61.8657 613.461C-7.67013 599.36 16.4546 636.481 34.0809 704.226L118.687 1029.4C136.314 1097.14 133.341 1141.32 79.1452 1155.42L-66.5054 1193.31C-68.5378 1193.84 -70.2452 1192.84 -70.774 1190.81L-210.022 655.626C-210.551 653.594 -209.549 651.886 -207.516 651.358L-61.8657 613.461ZM37.6702 1079.41L-61.0374 700.042L-101.684 710.618L-2.97648 1089.99L37.6702 1079.41ZM228.004 541.657L397.06 1069.08C397.765 1071.79 396.586 1072.82 394.554 1073.35L313.26 1094.5C311.228 1095.03 309.697 1094.71 308.992 1092L266.965 958.27L219.544 970.609L248.022 1107.86C248.727 1110.57 247.548 1111.6 245.516 1112.13L164.223 1133.28C162.19 1133.81 160.659 1133.48 159.954 1130.77L50.5135 587.838C49.8084 585.128 50.987 584.098 53.0194 583.569L223.735 539.151C225.768 538.622 227.299 538.947 228.004 541.657ZM152.755 644.416L203.134 888.081L241.071 878.211L166.303 640.891L152.755 644.416ZM642.198 1004.58C644.081 1006.26 643.255 1008.64 641.223 1009.17L558.575 1030.67C557.22 1031.03 554.835 1030.2 553.805 1029.02C541.473 1017.76 535.304 994.054 531.955 981.183L483.603 789.791L442.957 800.367L505.53 1040.86C506.059 1042.89 505.057 1044.6 503.024 1045.13L421.731 1066.28C419.699 1066.81 417.991 1065.81 417.462 1063.77L278.214 528.592C277.685 526.56 278.688 524.853 280.72 524.324L426.371 486.427C480.566 472.326 504.691 509.448 522.317 577.192L546.642 670.679C556.16 707.261 537.979 723.565 527.493 727.74L531.018 741.289C541.532 740 566.031 745.198 575.549 781.78L621.377 957.916C624.374 969.432 630.543 993.143 642.198 1004.58ZM421.805 719.073L462.452 708.497L427.199 573.009L386.552 583.584L421.805 719.073ZM751.112 980.578L669.819 1001.73C667.786 1002.26 666.079 1001.26 665.55 999.224L526.302 464.043C525.773 462.01 526.775 460.303 528.808 459.774L610.101 438.623C612.133 438.094 613.841 439.096 614.37 441.129L672.537 664.685L686.086 661.16L671.275 426.322C671.424 424.114 672.426 422.406 674.458 421.878L758.461 400.021C760.494 399.492 762.201 400.494 762.053 402.703L776.126 684.747L901.301 937.884C902.683 940.418 901.505 941.448 899.472 941.977L815.469 963.833C813.437 964.362 811.729 963.36 810.523 961.504L709 749.228L695.451 752.753L753.618 976.31C754.147 978.342 753.144 980.05 751.112 980.578Z" fill="black"/>
<path d="M-61.8657 1214.46C-7.67013 1200.36 16.4546 1237.48 34.0809 1305.23L118.687 1630.4C136.314 1698.14 133.341 1742.32 79.1452 1756.42L-66.5054 1794.31C-68.5378 1794.84 -70.2452 1793.84 -70.774 1791.81L-210.022 1256.63C-210.551 1254.59 -209.549 1252.89 -207.516 1252.36L-61.8657 1214.46ZM37.6702 1680.41L-61.0374 1301.04L-101.684 1311.62L-2.97648 1690.99L37.6702 1680.41ZM228.004 1142.66L397.06 1670.08C397.765 1672.79 396.586 1673.82 394.554 1674.35L313.26 1695.5C311.228 1696.03 309.697 1695.71 308.992 1693L266.965 1559.27L219.544 1571.61L248.022 1708.86C248.727 1711.57 247.548 1712.6 245.516 1713.13L164.223 1734.28C162.19 1734.81 160.659 1734.48 159.954 1731.77L50.5135 1188.84C49.8084 1186.13 50.987 1185.1 53.0194 1184.57L223.735 1140.15C225.768 1139.62 227.299 1139.95 228.004 1142.66ZM152.755 1245.42L203.134 1489.08L241.071 1479.21L166.303 1241.89L152.755 1245.42ZM642.198 1605.58C644.081 1607.26 643.255 1609.64 641.223 1610.17L558.575 1631.67C557.22 1632.03 554.835 1631.2 553.805 1630.02C541.473 1618.76 535.304 1595.05 531.955 1582.18L483.603 1390.79L442.957 1401.37L505.53 1641.86C506.059 1643.89 505.057 1645.6 503.024 1646.13L421.731 1667.28C419.699 1667.81 417.991 1666.81 417.462 1664.77L278.214 1129.59C277.685 1127.56 278.688 1125.85 280.72 1125.32L426.371 1087.43C480.566 1073.33 504.691 1110.45 522.317 1178.19L546.642 1271.68C556.16 1308.26 537.979 1324.56 527.493 1328.74L531.018 1342.29C541.532 1341 566.031 1346.2 575.549 1382.78L621.377 1558.92C624.374 1570.43 630.543 1594.14 642.198 1605.58ZM421.805 1320.07L462.452 1309.5L427.199 1174.01L386.552 1184.58L421.805 1320.07ZM751.112 1581.58L669.819 1602.73C667.786 1603.26 666.079 1602.26 665.55 1600.22L526.302 1065.04C525.773 1063.01 526.775 1061.3 528.808 1060.77L610.101 1039.62C612.133 1039.09 613.841 1040.1 614.37 1042.13L672.537 1265.69L686.086 1262.16L671.275 1027.32C671.424 1025.11 672.426 1023.41 674.458 1022.88L758.461 1001.02C760.494 1000.49 762.201 1001.49 762.053 1003.7L776.126 1285.75L901.301 1538.88C902.683 1541.42 901.505 1542.45 899.472 1542.98L815.469 1564.83C813.437 1565.36 811.729 1564.36 810.523 1562.5L709 1350.23L695.451 1353.75L753.618 1577.31C754.147 1579.34 753.144 1581.05 751.112 1581.58Z" fill="black"/>
<path d="M930.689 956.268C984.884 942.167 1009.01 979.288 1026.64 1047.03L1111.24 1372.21C1128.87 1439.95 1125.9 1484.12 1071.7 1498.22L926.049 1536.12C924.017 1536.65 922.309 1535.65 921.781 1533.61L782.532 998.433C782.004 996.401 783.006 994.693 785.038 994.165L930.689 956.268ZM1030.22 1422.22L931.517 1042.85L890.87 1053.42L989.578 1432.79L1030.22 1422.22ZM1220.56 884.464L1389.61 1411.89C1390.32 1414.6 1389.14 1415.63 1387.11 1416.16L1305.82 1437.31C1303.78 1437.84 1302.25 1437.51 1301.55 1434.8L1259.52 1301.08L1212.1 1313.42L1240.58 1450.67C1241.28 1453.38 1240.1 1454.41 1238.07 1454.94L1156.78 1476.09C1154.74 1476.62 1153.21 1476.29 1152.51 1473.58L1043.07 930.645C1042.36 927.935 1043.54 926.905 1045.57 926.376L1216.29 881.958C1218.32 881.429 1219.85 881.754 1220.56 884.464ZM1145.31 987.223L1195.69 1230.89L1233.63 1221.02L1158.86 983.698L1145.31 987.223ZM1634.75 1347.38C1636.64 1349.06 1635.81 1351.45 1633.78 1351.98L1551.13 1373.48C1549.77 1373.83 1547.39 1373.01 1546.36 1371.83C1534.03 1360.57 1527.86 1336.86 1524.51 1323.99L1476.16 1132.6L1435.51 1143.17L1498.08 1383.67C1498.61 1385.7 1497.61 1387.41 1495.58 1387.93L1414.29 1409.09C1412.25 1409.62 1410.55 1408.61 1410.02 1406.58L1270.77 871.399C1270.24 869.367 1271.24 867.66 1273.27 867.131L1418.93 829.234C1473.12 815.133 1497.25 852.254 1514.87 919.999L1539.2 1013.49C1548.71 1050.07 1530.53 1066.37 1520.05 1070.55L1523.57 1084.1C1534.09 1082.81 1558.59 1088.01 1568.1 1124.59L1613.93 1300.72C1616.93 1312.24 1623.1 1335.95 1634.75 1347.38ZM1414.36 1061.88L1455.01 1051.3L1419.75 915.815L1379.11 926.391L1414.36 1061.88ZM1743.67 1323.39L1662.37 1344.54C1660.34 1345.07 1658.63 1344.06 1658.1 1342.03L1518.86 806.85C1518.33 804.817 1519.33 803.11 1521.36 802.581L1602.66 781.43C1604.69 780.901 1606.4 781.903 1606.92 783.935L1665.09 1007.49L1678.64 1003.97L1663.83 769.129C1663.98 766.921 1664.98 765.213 1667.01 764.684L1751.02 742.828C1753.05 742.299 1754.76 743.301 1754.61 745.51L1768.68 1027.55L1893.86 1280.69C1895.24 1283.22 1894.06 1284.25 1892.03 1284.78L1808.02 1306.64C1805.99 1307.17 1804.28 1306.17 1803.08 1304.31L1701.55 1092.03L1688.01 1095.56L1746.17 1319.12C1746.7 1321.15 1745.7 1322.86 1743.67 1323.39Z" fill="black"/>
<path d="M1923.13 698.461C1977.33 684.36 2001.45 721.481 2019.08 789.226L2103.69 1114.4C2121.31 1182.14 2118.34 1226.32 2064.15 1240.42L1918.49 1278.31C1916.46 1278.84 1914.75 1277.84 1914.23 1275.81L1774.98 740.626C1774.45 738.594 1775.45 736.886 1777.48 736.358L1923.13 698.461ZM2022.67 1164.41L1923.96 785.042L1883.32 795.618L1982.02 1174.99L2022.67 1164.41ZM2213 626.657L2382.06 1154.08C2382.76 1156.79 2381.59 1157.82 2379.55 1158.35L2298.26 1179.5C2296.23 1180.03 2294.7 1179.71 2293.99 1177L2251.96 1043.27L2204.54 1055.61L2233.02 1192.86C2233.73 1195.57 2232.55 1196.6 2230.52 1197.13L2149.22 1218.28C2147.19 1218.81 2145.66 1218.48 2144.95 1215.77L2035.51 672.838C2034.81 670.128 2035.99 669.098 2038.02 668.569L2208.74 624.151C2210.77 623.622 2212.3 623.947 2213 626.657ZM2137.75 729.416L2188.13 973.081L2226.07 963.211L2151.3 725.891L2137.75 729.416ZM2627.2 1089.58C2629.08 1091.26 2628.26 1093.64 2626.22 1094.17L2543.57 1115.67C2542.22 1116.03 2539.84 1115.2 2538.81 1114.02C2526.47 1102.76 2520.3 1079.05 2516.95 1066.18L2468.6 874.791L2427.96 885.367L2490.53 1125.86C2491.06 1127.89 2490.06 1129.6 2488.02 1130.13L2406.73 1151.28C2404.7 1151.81 2402.99 1150.81 2402.46 1148.77L2263.21 613.592C2262.69 611.56 2263.69 609.853 2265.72 609.324L2411.37 571.427C2465.57 557.326 2489.69 594.448 2507.32 662.192L2531.64 755.679C2541.16 792.261 2522.98 808.565 2512.49 812.74L2516.02 826.289C2526.53 825 2551.03 830.198 2560.55 866.78L2606.38 1042.92C2609.37 1054.43 2615.54 1078.14 2627.2 1089.58ZM2406.81 804.073L2447.45 793.497L2412.2 658.009L2371.55 668.584L2406.81 804.073ZM2736.11 1065.58L2654.82 1086.73C2652.79 1087.26 2651.08 1086.26 2650.55 1084.22L2511.3 549.043C2510.77 547.01 2511.78 545.303 2513.81 544.774L2595.1 523.623C2597.13 523.094 2598.84 524.096 2599.37 526.129L2657.54 749.685L2671.09 746.16L2656.27 511.322C2656.42 509.114 2657.43 507.406 2659.46 506.878L2743.46 485.021C2745.49 484.492 2747.2 485.494 2747.05 487.703L2761.13 769.747L2886.3 1022.88C2887.68 1025.42 2886.5 1026.45 2884.47 1026.98L2800.47 1048.83C2798.44 1049.36 2796.73 1048.36 2795.52 1046.5L2694 834.228L2680.45 837.753L2738.62 1061.31C2739.15 1063.34 2738.14 1065.05 2736.11 1065.58Z" fill="black"/>
<path d="M930.689 355.268C984.884 341.167 1009.01 378.288 1026.64 446.033L1111.24 771.206C1128.87 838.95 1125.9 883.122 1071.7 897.224L926.049 935.12C924.017 935.649 922.309 934.647 921.781 932.614L782.532 397.433C782.004 395.401 783.006 393.693 785.038 393.165L930.689 355.268ZM1030.22 821.218L931.517 441.849L890.87 452.425L989.578 831.794L1030.22 821.218ZM1220.56 283.464L1389.61 810.889C1390.32 813.599 1389.14 814.629 1387.11 815.158L1305.82 836.309C1303.78 836.838 1302.25 836.513 1301.55 833.803L1259.52 700.077L1212.1 712.416L1240.58 849.667C1241.28 852.377 1240.1 853.407 1238.07 853.936L1156.78 875.087C1154.74 875.616 1153.21 875.291 1152.51 872.581L1043.07 329.645C1042.36 326.935 1043.54 325.905 1045.57 325.376L1216.29 280.958C1218.32 280.429 1219.85 280.754 1220.56 283.464ZM1145.31 386.223L1195.69 629.888L1233.63 620.018L1158.86 382.698L1145.31 386.223ZM1634.75 746.384C1636.64 748.063 1635.81 750.448 1633.78 750.977L1551.13 772.481C1549.77 772.834 1547.39 772.008 1546.36 770.829C1534.03 759.572 1527.86 735.861 1524.51 722.99L1476.16 531.598L1435.51 542.173L1498.08 782.666C1498.61 784.699 1497.61 786.406 1495.58 786.935L1414.29 808.086C1412.25 808.615 1410.55 807.613 1410.02 805.581L1270.77 270.399C1270.24 268.367 1271.24 266.66 1273.27 266.131L1418.93 228.234C1473.12 214.133 1497.25 251.254 1514.87 318.999L1539.2 412.486C1548.71 449.068 1530.53 465.372 1520.05 469.547L1523.57 483.096C1534.09 481.806 1558.59 487.005 1568.1 523.587L1613.93 699.723C1616.93 711.239 1623.1 734.95 1634.75 746.384ZM1414.36 460.88L1455.01 450.304L1419.75 314.815L1379.11 325.391L1414.36 460.88ZM1743.67 722.385L1662.37 743.537C1660.34 744.066 1658.63 743.063 1658.1 741.031L1518.86 205.85C1518.33 203.817 1519.33 202.11 1521.36 201.581L1602.66 180.43C1604.69 179.901 1606.4 180.903 1606.92 182.935L1665.09 406.492L1678.64 402.967L1663.83 168.129C1663.98 165.921 1664.98 164.213 1667.01 163.684L1751.02 141.828C1753.05 141.299 1754.76 142.301 1754.61 144.51L1768.68 426.554L1893.86 679.691C1895.24 682.225 1894.06 683.255 1892.03 683.783L1808.02 705.64C1805.99 706.169 1804.28 705.167 1803.08 703.311L1701.55 491.035L1688.01 494.56L1746.17 718.117C1746.7 720.149 1745.7 721.856 1743.67 722.385Z" fill="black"/>
<path d="M1923.13 93.461C1977.33 79.3599 2001.45 116.481 2019.08 184.226L2103.69 509.399C2121.31 577.144 2118.34 621.316 2064.15 635.417L1918.49 673.313C1916.46 673.842 1914.75 672.84 1914.23 670.807L1774.98 135.626C1774.45 133.594 1775.45 131.886 1777.48 131.358L1923.13 93.461ZM2022.67 559.411L1923.96 180.042L1883.32 190.618L1982.02 569.987L2022.67 559.411ZM2213 21.6566L2382.06 549.082C2382.76 551.792 2381.59 552.822 2379.55 553.351L2298.26 574.502C2296.23 575.031 2294.7 574.706 2293.99 571.997L2251.96 438.27L2204.54 450.609L2233.02 587.86C2233.73 590.57 2232.55 591.6 2230.52 592.129L2149.22 613.28C2147.19 613.809 2145.66 613.484 2144.95 610.775L2035.51 67.8377C2034.81 65.1279 2035.99 64.0979 2038.02 63.5691L2208.74 19.1507C2210.77 18.6219 2212.3 18.9468 2213 21.6566ZM2137.75 124.416L2188.13 368.081L2226.07 358.211L2151.3 120.891L2137.75 124.416ZM2627.2 484.577C2629.08 486.257 2628.26 488.641 2626.22 489.17L2543.57 510.674C2542.22 511.027 2539.84 510.201 2538.81 509.022C2526.47 497.765 2520.3 474.054 2516.95 461.183L2468.6 269.791L2427.96 280.367L2490.53 520.859C2491.06 522.892 2490.06 524.599 2488.02 525.128L2406.73 546.28C2404.7 546.808 2402.99 545.806 2402.46 543.774L2263.21 8.59246C2262.69 6.56012 2263.69 4.85272 2265.72 4.32393L2411.37 -33.5727C2465.57 -47.6738 2489.69 -10.5524 2507.32 57.192L2531.64 150.679C2541.16 187.261 2522.98 203.565 2512.49 207.74L2516.02 221.289C2526.53 220 2551.03 225.198 2560.55 261.78L2606.38 437.916C2609.37 449.432 2615.54 473.143 2627.2 484.577ZM2406.81 199.073L2447.45 188.497L2412.2 53.0085L2371.55 63.5843L2406.81 199.073ZM2736.11 460.578L2654.82 481.73C2652.79 482.259 2651.08 481.256 2650.55 479.224L2511.3 -55.9572C2510.77 -57.9895 2511.78 -59.6969 2513.81 -60.2257L2595.1 -81.3774C2597.13 -81.9061 2598.84 -80.9038 2599.37 -78.8715L2657.54 144.685L2671.09 141.16L2656.27 -93.6776C2656.42 -95.8862 2657.43 -97.5936 2659.46 -98.1224L2743.46 -119.979C2745.49 -120.508 2747.2 -119.506 2747.05 -117.297L2761.13 164.747L2886.3 417.884C2887.68 420.418 2886.5 421.448 2884.47 421.977L2800.47 443.833C2798.44 444.362 2796.73 443.36 2795.52 441.504L2694 229.228L2680.45 232.753L2738.62 456.31C2739.15 458.342 2738.14 460.05 2736.11 460.578Z" fill="black"/>
</svg>
