<svg width="1022" height="277" viewBox="0 0 1022 277" fill="none" xmlns="http://www.w3.org/2000/svg">
<path d="M0.287598 0.69364V276.436H105.511C185.701 276.436 242.98 219.166 242.98 138.565C242.98 58.8116 186.974 0.69364 110.602 0.69364H0.287598ZM63.0821 58.3874H107.208C147.515 58.3874 176.791 92.325 176.791 138.989C176.791 186.077 146.242 219.591 103.814 219.591H63.0821V58.3874Z" fill="white"/>
<path d="M242.102 0.69364L337.991 276.436H414.362L510.251 0.69364H442.365L422 65.175H330.778L310.836 0.69364H242.102ZM344.355 109.294H407.998L376.176 211.106L344.355 109.294Z" fill="white"/>
<path d="M526.221 276.436V0.693604H663.749C713.836 0.693604 750.34 36.7522 750.34 86.3859C750.34 122.02 729.966 150.443 698.131 163.594L755.434 276.436H680.727L642.95 171.23H589.042V276.436H526.221ZM589.042 127.111H651.015C670.116 127.111 684.123 112.687 684.123 92.3249C684.123 71.9624 670.116 57.539 651.015 57.539H589.042V127.111Z" fill="white"/>
<path d="M781.88 276.436V0.693604H844.701V121.596L927.897 0.693604H1004.3L913.041 112.687L1021.28 276.436H944.876L876.112 157.655L844.701 196.259V276.436H781.88Z" fill="white"/>
</svg>
