<svg width="1824" height="597" viewBox="0 0 1824 597" fill="none" xmlns="http://www.w3.org/2000/svg">
<mask id="mask0_35_10" style="mask-type:alpha" maskUnits="userSpaceOnUse" x="0" y="0" width="1824" height="597">
<rect width="1824" height="597" fill="#D9D9D9"/>
</mask>
<g mask="url(#mask0_35_10)">
<path d="M401.288 1.69364V277.436H506.511C586.701 277.436 643.98 220.166 643.98 139.565C643.98 59.8116 587.974 1.69364 511.602 1.69364H401.288ZM464.082 59.3874H508.208C548.515 59.3874 577.791 93.325 577.791 139.989C577.791 187.077 547.242 220.591 504.814 220.591H464.082V59.3874Z" fill="#FF0000"/>
<path d="M643.102 1.69364L738.991 277.436H815.362L911.251 1.69364H843.365L823 66.175H731.778L711.836 1.69364H643.102ZM745.355 110.294H808.998L777.176 212.106L745.355 110.294Z" fill="#FF0000"/>
<path d="M927.221 277.436V1.6936H1064.75C1114.84 1.6936 1151.34 37.7522 1151.34 87.3859C1151.34 123.02 1130.97 151.443 1099.13 164.594L1156.43 277.436H1081.73L1043.95 172.23H990.042V277.436H927.221ZM990.042 128.111H1052.01C1071.12 128.111 1085.12 113.687 1085.12 93.3249C1085.12 72.9624 1071.12 58.539 1052.01 58.539H990.042V128.111Z" fill="#FF0000"/>
<path d="M1182.88 277.436V1.6936H1245.7V122.596L1328.9 1.6936H1405.3L1314.04 113.687L1422.28 277.436H1345.88L1277.11 158.655L1245.7 197.259V277.436H1182.88Z" fill="#FF0000"/>
<path d="M789.452 318.567V594.309H894.675C974.866 594.309 1032.14 537.04 1032.14 456.438C1032.14 376.685 976.139 318.567 899.767 318.567H789.452ZM852.247 376.26H896.373C936.68 376.26 965.956 410.198 965.956 456.862C965.956 503.95 935.407 537.464 892.978 537.464H852.247V376.26Z" fill="#FF0000"/>
<path d="M1031.27 318.567L1127.16 594.309H1203.53L1299.42 318.567H1231.53L1211.16 383.048H1119.94L1100 318.567H1031.27ZM1133.52 427.167H1197.16L1165.34 528.979L1133.52 427.167Z" fill="#FF0000"/>
<path d="M1315.39 594.309V318.567H1452.91C1503 318.567 1539.5 354.625 1539.5 404.259C1539.5 439.893 1519.13 468.316 1487.3 481.467L1544.6 594.309H1469.89L1432.11 489.103H1378.21V594.309H1315.39ZM1378.21 444.984H1440.18C1459.28 444.984 1473.29 430.56 1473.29 410.198C1473.29 389.835 1459.28 375.412 1440.18 375.412H1378.21V444.984Z" fill="#FF0000"/>
<path d="M1571.04 594.309V318.567H1633.87V439.469L1717.06 318.567H1793.47L1702.21 430.561L1810.44 594.309H1734.04L1665.28 475.528L1633.87 514.132V594.309H1571.04Z" fill="#FF0000"/>
<path d="M378.992 1.69363V277.436H273.769C193.579 277.436 136.3 220.166 136.3 139.565C136.3 59.8116 192.306 1.69363 268.677 1.69363H378.992ZM316.198 59.3874H272.072C231.764 59.3874 202.489 93.325 202.489 139.989C202.489 187.077 233.037 220.591 275.466 220.591H316.198V59.3874Z" fill="#FF0000"/>
<path d="M137.178 1.69363L41.2892 277.436H-35.0826L-130.972 1.69363H-63.0855L-42.7197 66.175H48.5021L68.4436 1.69363H137.178ZM34.9249 110.294H-28.7182L3.10333 212.106L34.9249 110.294Z" fill="#FF0000"/>
<path d="M767.156 318.567V594.309H661.933C581.743 594.309 524.464 537.04 524.464 456.438C524.464 376.685 580.47 318.567 656.842 318.567H767.156ZM704.362 376.26H660.236C619.928 376.26 590.653 410.198 590.653 456.862C590.653 503.95 621.201 537.464 663.63 537.464H704.362V376.26Z" fill="#FF0000"/>
<path d="M525.342 318.567L429.453 594.309H353.082L257.193 318.567H325.079L345.444 383.048H436.666L456.608 318.567H525.342ZM423.089 427.167H359.446L391.267 528.979L423.089 427.167Z" fill="#FF0000"/>
<path d="M241.223 594.309V318.567H103.695C53.6079 318.567 17.1037 354.625 17.1037 404.259C17.1037 439.893 37.4781 468.316 69.3132 481.467L12.0101 594.309H86.7164L124.494 489.103H178.401V594.309H241.223ZM178.401 444.984H116.429C97.3281 444.984 83.3206 430.56 83.3206 410.198C83.3206 389.835 97.3281 375.412 116.429 375.412H178.401V444.984Z" fill="#FF0000"/>
<path d="M-14.4362 594.309V318.567H-77.2574V439.469L-160.453 318.567H-236.857L-145.597 430.561L-253.836 594.309H-177.432L-108.668 475.528L-77.2574 514.132V594.309H-14.4362Z" fill="#FF0000"/>
<path d="M1939.63 1.69363V277.436H1802.11C1752.02 277.436 1715.52 241.377 1715.52 191.744C1715.52 156.109 1735.89 127.687 1767.72 114.536L1710.42 1.69363H1785.13L1822.91 106.9H1876.81V1.69363H1939.63ZM1876.81 151.019H1814.84C1795.74 151.019 1781.73 165.442 1781.73 185.805C1781.73 206.167 1795.74 220.591 1814.84 220.591H1876.81V151.019Z" fill="#FF0000"/>
<path d="M1683.98 1.69363V277.436H1621.15V156.534L1537.96 277.436H1461.55L1552.81 165.442L1444.58 1.69363H1520.98L1589.74 120.475L1621.15 81.871V1.69363H1683.98Z" fill="#FF0000"/>
</g>
</svg>
